<svg xmlns="http://www.w3.org/2000/svg" xmlns:xlink="http://www.w3.org/1999/xlink" id="Layer_1" x="0" y="0" version="1.1" viewBox="0 0 32 32" xml:space="preserve" style="enable-background:new 0 0 32 32"><style type="text/css">.st0{fill:#fff}</style><path d="M30,7h-5.1c-0.5-2.7-3.2-4.5-5.9-3.9C17,3.5,15.5,5,15.1,7H2v2h13.1c0.5,2.7,3.2,4.5,5.9,3.9	c2-0.4,3.5-1.9,3.9-3.9H30V7z M20,11c-1.7,0-3-1.3-3-3s1.3-3,3-3s3,1.3,3,3C23,9.7,21.7,11,20,11z M30,23H16.9	c-0.5-2.7-3.2-4.5-5.9-3.9C9,19.5,7.5,21,7.1,23H2v2h5.1c0.5,2.7,3.2,4.5,5.9,3.9c2-0.4,3.5-1.9,3.9-3.9H30V23z M12,27	c-1.7,0-3-1.3-3-3s1.3-3,3-3s3,1.3,3,3C15,25.7,13.7,27,12,27z" class="st0"/></svg>