<svg xmlns="http://www.w3.org/2000/svg" xmlns:xlink="http://www.w3.org/1999/xlink" id="Layer_1" x="0" y="0" version="1.1" viewBox="0 0 32 32" xml:space="preserve" style="enable-background:new 0 0 32 32"><style type="text/css">.st0{fill:#c5c5c5}</style><path d="M12,4H6C4.9,4,4,4.9,4,6v6c0,1.1,0.9,2,2,2h6c1.1,0,2-0.9,2-2V6C14,4.9,13.1,4,12,4z M12,12H6V6h6V12z M26,4h-6	c-1.1,0-2,0.9-2,2v6c0,1.1,0.9,2,2,2h6c1.1,0,2-0.9,2-2V6C28,4.9,27.1,4,26,4z M26,12h-6V6h6V12z M12,18H6c-1.1,0-2,0.9-2,2v6	c0,1.1,0.9,2,2,2h6c1.1,0,2-0.9,2-2v-6C14,18.9,13.1,18,12,18z M12,26H6v-6h6V26z M26,18h-6c-1.1,0-2,0.9-2,2v6c0,1.1,0.9,2,2,2h6	c1.1,0,2-0.9,2-2v-6C28,18.9,27.1,18,26,18z M26,26h-6v-6h6V26z" class="st0"/></svg>