<svg xmlns="http://www.w3.org/2000/svg" xmlns:xlink="http://www.w3.org/1999/xlink" id="Layer_1" x="0" y="0" version="1.1" viewBox="0 0 32 32" xml:space="preserve" style="enable-background:new 0 0 32 32"><style type="text/css">.st0{fill:#c5c5c5}</style><path d="M25,13V4h-2v2h-3v2h3v5h-3v2h8v-2H25z M8.5,6C10.4,6,12,7.6,12,9.5S10.4,13,8.5,13S5,11.4,5,9.5S6.6,6,8.5,6 M8.5,4C5.5,4,3,6.5,3,9.5S5.5,15,8.5,15S14,12.5,14,9.5S11.5,4,8.5,4z M8.5,20c1.9,0,3.5,1.6,3.5,3.5S10.4,27,8.5,27S5,25.4,5,23.5	S6.6,20,8.5,20L8.5,20 M8.5,18c-3,0-5.5,2.5-5.5,5.5S5.5,29,8.5,29s5.5-2.5,5.5-5.5S11.5,18,8.5,18z M23.5,20c1.9,0,3.5,1.6,3.5,3.5	S25.4,27,23.5,27S20,25.4,20,23.5S21.6,20,23.5,20L23.5,20 M23.5,18c-3,0-5.5,2.5-5.5,5.5s2.5,5.5,5.5,5.5s5.5-2.5,5.5-5.5	S26.5,18,23.5,18z" class="st0"/></svg>