<svg xmlns="http://www.w3.org/2000/svg" xmlns:xlink="http://www.w3.org/1999/xlink" id="icon" x="0" y="0" version="1.1" viewBox="0 0 32 32" xml:space="preserve" style="enable-background:new 0 0 32 32"><style type="text/css">.st0{fill:none}.st1{fill:#c5c5c5}</style><title>wallet</title><rect id="_Transparent_Rectangle_" width="32" height="32" class="st0"/><rect width="2" height="2" x="22" y="17" class="st1"/><path d="M28,8H4V5h22V3H4C2.9,3,2,3.9,2,5v21c0,1.1,0.9,2,2,2h24c1.1,0,2-0.9,2-2V10C30,8.9,29.1,8,28,8z M4,26V10h24v3	h-8c-1.1,0-2,0.9-2,2v6c0,1.1,0.9,2,2,2h8v3H4z M28,15v6h-8v-6H28z" class="st1"/></svg>