<svg xmlns="http://www.w3.org/2000/svg" xmlns:xlink="http://www.w3.org/1999/xlink" id="icon" x="0" y="0" version="1.1" viewBox="0 0 32 32" xml:space="preserve" style="enable-background:new 0 0 32 32"><style type="text/css">.st0{fill:#424242}.st1{fill:none}</style><title>package</title><path d="M26,30H6c-1.1,0-2-0.9-2-2V16c0-1.1,0.9-2,2-2h3v2H6v12h20V16h-3v-2h3c1.1,0,2,0.9,2,2v12	C28,29.1,27.1,30,26,30z" class="st0"/><rect width="6" height="2" x="13" y="20" class="st0"/><polygon points="20.6 8.6 17 12.2 17 2 15 2 15 12.2 11.4 8.6 10 10 16 16 22 10" class="st0"/><rect id="_Transparent_Rectangle_" width="32" height="32" class="st1"/></svg>